<svg width="57" height="41" viewBox="0 0 57 41" fill="none" xmlns="http://www.w3.org/2000/svg">
<path d="M37.6092 20.9129C37.6092 9.92305 28.6492 0.91333 17.5466 0.91333C17.4492 0.91333 17.3518 0.91333 17.2544 0.91333V11.9032C17.3518 11.9032 17.4492 11.9032 17.5466 11.9032C22.5135 11.9032 26.604 15.9625 26.604 20.9129C26.604 25.8633 22.5135 29.9226 17.5466 29.9226C17.4492 29.9226 17.3518 29.9226 17.2544 29.9226V40.9125C17.3518 40.9125 17.4492 40.9125 17.5466 40.9125C28.6492 41.0115 37.6092 32.0018 37.6092 20.9129Z" fill="#272B35"/>
<path d="M56.3089 20.9129C56.3089 9.92305 47.3489 0.91333 36.2463 0.91333C36.1489 0.91333 36.0515 0.91333 35.9541 0.91333V11.9032C36.0515 11.9032 36.1489 11.9032 36.2463 11.9032C41.2132 11.9032 45.3037 15.9625 45.3037 20.9129C45.3037 25.8633 41.2132 29.9226 36.2463 29.9226C36.1489 29.9226 36.0515 29.9226 35.9541 29.9226V40.9125C36.0515 40.9125 36.1489 40.9125 36.2463 40.9125C47.3489 41.0115 56.3089 32.0018 56.3089 20.9129Z" fill="#272B35"/>
<path d="M9.26859 30.2197C14.2355 30.2197 18.2286 26.1603 18.2286 21.1109C18.2286 16.0615 14.2355 12.0022 9.26859 12.0022C4.30164 12.0022 0.308594 16.0615 0.308594 21.1109C0.308594 26.1603 4.30164 30.2197 9.26859 30.2197Z" fill="#272B35"/>
</svg>